<svg xmlns="http://www.w3.org/2000/svg" version="1.1" xmlns:xlink="http://www.w3.org/1999/xlink" xmlns:svgjs="http://svgjs.dev/svgjs" width="1000" height="106" viewBox="0 0 1000 106"><g transform="matrix(1,0,0,1,-0.6060606060606233,0.06321595632541488)"><svg viewBox="0 0 396 42" data-background-color="#ffffff" preserveAspectRatio="xMidYMid meet" height="106" width="1000" xmlns="http://www.w3.org/2000/svg" xmlns:xlink="http://www.w3.org/1999/xlink"><g id="tight-bounds" transform="matrix(1,0,0,1,0.2400000000000091,-0.025047831751578542)"><svg viewBox="0 0 395.52 42.050095663503136" height="42.050095663503136" width="395.52"><g><svg viewBox="0 0 468.0957232119 49.7660546640804" height="42.050095663503136" width="395.52"><g><rect width="4.465626037985259" height="49.7660546640804" x="56.41997665562878" y="0" fill="#7a26c1" opacity="1" stroke-width="0" stroke="transparent" fill-opacity="1" class="rect-i$-0" data-fill-palette-color="primary" rx="1%" id="i$-0" data-palette-color="#7a26c1"></rect></g><g transform="matrix(1,0,0,1,72.57572321190005,0.12379615588079318)"><svg viewBox="0 0 395.52 49.518462352318814" height="49.518462352318814" width="395.52"><g id="textblocktransform"><svg viewBox="0 0 395.52 49.518462352318814" height="49.518462352318814" width="395.52" id="textblock"><g><svg viewBox="0 0 395.52 49.518462352318814" height="49.518462352318814" width="395.52"><g transform="matrix(1,0,0,1,0,0)"><svg width="395.52" viewBox="2.2 -34.9 283.53000000000003 35.5" height="49.518462352318814" data-palette-color="#7a26c1"><path d="M18.8 0.6Q10.7 0.6 6.45-3.75 2.2-8.1 2.2-17.15L2.2-17.15Q2.2-26.05 6.5-30.48 10.8-34.9 18.8-34.9L18.8-34.9Q23.2-34.9 26.6-33.43 30-31.95 31.98-28.98 33.95-26 33.95-21.65L33.95-21.65 27.4-21.65Q27.4-25.4 25.08-27.45 22.75-29.5 18.9-29.5L18.9-29.5Q13.75-29.5 11.25-26.55 8.75-23.6 8.75-17.65L8.75-17.65 8.75-16.65Q8.75-10.65 11.23-7.73 13.7-4.8 18.9-4.8L18.9-4.8Q22.95-4.8 25.3-6.83 27.65-8.85 27.65-12.55L27.65-12.55 33.95-12.55Q33.95-6.1 29.78-2.75 25.6 0.6 18.8 0.6L18.8 0.6ZM39.9 0L39.9-34.3 46.25-34.3 46.25 0 39.9 0ZM53.55 0L53.55-34.3 59.65-34.3 74.55-13.85Q75.15-12.95 75.59-12.18 76.05-11.4 76.25-11.1L76.25-11.1 76.5-11.2 76.4-13.9 76.4-34.3 82.55-34.3 82.55 0 76.55 0 61.55-20.65Q61-21.4 60.5-22.33 60-23.25 59.85-23.45L59.85-23.45 59.6-23.3Q59.6-23.05 59.65-22.3 59.7-21.55 59.7-20.55L59.7-20.55 59.7 0 53.55 0ZM89.64 0L89.64-34.3 116.39-34.3 116.39-28.85 96.04-28.85 96.04-20.25 114.19-20.25 114.19-14.8 96.04-14.8 96.04-5.45 116.69-5.45 116.69 0 89.64 0ZM122.99 0L122.99-34.3 132.84-34.3 138.79-13.85Q139.39-11.75 140.39-7L140.39-7 140.64-7Q141.54-12.05 142.04-13.85L142.04-13.85 148.04-34.3 157.54-34.3 157.54 0 151.14 0 151.14-22.15Q151.14-23.4 151.39-27.95L151.39-27.95 151.09-27.95Q150.69-26.25 150.09-24.15L150.09-24.15 143.04 0 137.14 0 130.14-24.15Q129.79-25.3 129.44-26.75L129.44-26.75 129.14-27.95 128.89-27.95Q129.09-23.45 129.09-22.15L129.09-22.15 129.09 0 122.99 0ZM161.29 0L174.64-34.3 182.69-34.3 196.04 0 189.14 0 186.34-7.45 170.64-7.45 167.89 0 161.29 0ZM172.64-12.85L184.29-12.85 180.79-22.25Q179.99-24.25 179.09-27.35L179.09-27.35Q178.94-27.8 178.81-28.18 178.69-28.55 178.59-28.8L178.59-28.8 178.34-28.8 177.84-27.25 176.14-22.25 172.64-12.85ZM198.29-10.7L198.29-16.3 210.84-16.3 210.84-10.7 198.29-10.7ZM216.43 0L216.43-34.3 222.83-34.3 222.83-20.3 239.03-20.3 239.03-34.3 245.43-34.3 245.43 0 239.03 0 239.03-14.8 222.83-14.8 222.83 0 216.43 0ZM268.43 0.6Q260.18 0.6 255.68-3.85 251.18-8.3 251.18-17.15L251.18-17.15Q251.18-26 255.68-30.45 260.18-34.9 268.43-34.9L268.43-34.9Q276.68-34.9 281.21-30.45 285.73-26 285.73-17.15L285.73-17.15Q285.73-8.3 281.21-3.85 276.68 0.6 268.43 0.6L268.43 0.6ZM268.43-4.8Q273.73-4.8 276.46-7.78 279.18-10.75 279.18-16.6L279.18-16.6 279.18-17.65Q279.18-23.5 276.43-26.5 273.68-29.5 268.43-29.5L268.43-29.5Q263.23-29.5 260.48-26.5 257.73-23.5 257.73-17.65L257.73-17.65 257.73-16.6Q257.73-10.75 260.46-7.78 263.18-4.8 268.43-4.8L268.43-4.8Z" opacity="1" transform="matrix(1,0,0,1,0,0)" fill="#7a26c1" class="undefined-text-0" data-fill-palette-color="primary" id="text-0"></path></svg></g></svg></g></svg></g></svg></g><g transform="matrix(1,0,0,1,0,0.12379615588079318)"><svg viewBox="0 0 44.729856137342765 49.518462352318814" height="49.518462352318814" width="44.729856137342765"><g><svg xmlns="http://www.w3.org/2000/svg" xmlns:xlink="http://www.w3.org/1999/xlink" version="1.1" x="0" y="0" viewBox="12.488999999999997 7.365 77.02499999999998 85.27100000000002" enable-background="new 0 0 100 100" xml:space="preserve" height="49.518462352318814" width="44.729856137342765" class="icon-icon-0" data-fill-palette-color="accent" id="icon-0"><path d="M76.509 92.632c-2.197-0.407-4.389-0.85-6.592-1.215C59.29 89.66 48.662 87.92 38.032 86.179c-8.29-1.358-16.581-2.707-24.871-4.062-0.198-0.032-0.389-0.098-0.672-0.17 2.406-14.675 4.804-29.304 7.192-43.876 0.246-0.051 0.328-0.094 0.401-0.08 1.839 0.326 4.056 0.145 5.406 1.138 1.302 0.96 1.718 3.132 2.502 4.781 0.875 1.839 1.746 3.682 2.583 5.54 0.331 0.736 0.732 1.158 1.632 1.25 1.763 0.179 3.508 0.549 5.521 0.882-1.857-3.903-3.615-7.599-5.495-11.552 1.569 0.231 2.924 0.566 4.286 0.603 2.197 0.059 3.35 1.119 4.133 3.136 1.065 2.747 2.469 5.362 3.702 8.044 0.301 0.657 0.67 1.021 1.462 1.114 1.801 0.209 3.587 0.565 5.635 0.904-1.861-3.912-3.622-7.608-5.499-11.553 1.515 0.224 2.827 0.531 4.152 0.59 2.172 0.097 3.475 0.988 4.269 3.133 1.02 2.76 2.467 5.36 3.694 8.044 0.326 0.713 0.743 1.051 1.572 1.143 1.765 0.195 3.511 0.555 5.533 0.891-1.863-3.92-3.619-7.614-5.512-11.594 2.453 0.407 4.68 0.746 6.888 1.182 0.288 0.057 0.534 0.585 0.702 0.941 1.535 3.23 3.063 6.464 4.56 9.712 0.306 0.664 0.675 1.017 1.46 1.108 1.806 0.211 3.594 0.56 5.624 0.891-1.866-3.92-3.625-7.618-5.501-11.562 2.047 0.316 3.872 0.599 5.697 0.881 0.037-0.069 0.073-0.138 0.11-0.206-1.556-0.951-3.111-1.901-4.864-2.972 1.323-0.603 2.475-1.127 3.626-1.652 2.346-1.071 4.708-2.109 7.029-3.231 0.764-0.37 1.352-0.361 2.05 0.117 0.783 0.537 1.646 0.954 2.475 1.424 0 0.083 0 0.167 0 0.25-1.686 2.761-3.379 5.518-5.049 8.29-0.162 0.269-0.198 0.625-0.25 0.947-1.49 9.013-2.972 18.027-4.46 27.04-0.825 4.997-1.662 9.995-2.495 14.991C77.01 92.632 76.76 92.632 76.509 92.632zM77.876 62.281c-18.855-3.089-37.531-6.149-56.265-9.218-0.218 1.376-0.405 2.549-0.609 3.831 18.781 3.077 37.466 6.14 56.237 9.216C77.452 64.828 77.648 63.652 77.876 62.281zM73.688 87.677c0.196-1.061 0.334-1.962 0.536-2.849 0.168-0.74-0.091-1.043-0.83-1.16-4.722-0.748-9.44-1.526-14.159-2.299-10.464-1.711-20.928-3.424-31.392-5.136-3.228-0.528-6.458-1.054-9.764-1.594-0.209 1.32-0.401 2.53-0.606 3.825C36.257 81.544 54.916 84.601 73.688 87.677z" fill="#7a26c1" data-fill-palette-color="accent"></path><path d="M27.738 16.463c1.826-3.034 3.619-6.013 5.476-9.098 3.761 2.258 7.45 4.473 11.34 6.809-0.672 0.319-1.163 0.559-1.661 0.787-3.022 1.384-6.054 2.75-9.063 4.159-0.664 0.312-1.188 0.353-1.837-0.073C30.642 18.159 29.23 17.361 27.738 16.463z" fill="#7a26c1" data-fill-palette-color="accent"></path><path d="M62.407 37.289c3.837-1.75 7.428-3.398 11.032-5.015 0.304-0.138 0.786-0.222 1.04-0.078 1.905 1.09 3.775 2.246 5.843 3.493-3.31 1.516-6.477 2.851-9.528 4.411-1.598 0.817-2.854 0.822-4.288-0.284C65.301 38.889 63.911 38.202 62.407 37.289z" fill="#7a26c1" data-fill-palette-color="accent"></path><path d="M56.502 21.359c-3.923 1.788-7.573 3.465-11.242 5.1-0.277 0.123-0.748 0.056-1.026-0.104-1.834-1.057-3.638-2.163-5.656-3.376 1.504-0.692 2.833-1.305 4.163-1.916 2.265-1.039 4.525-2.09 6.805-3.095 0.331-0.146 0.849-0.233 1.127-0.076C52.551 18.955 54.388 20.089 56.502 21.359z" fill="#7a26c1" data-fill-palette-color="accent"></path><path d="M68.414 28.524c-2.925 1.336-5.795 2.379-8.382 3.904-2.47 1.456-4.469 1.282-6.584-0.48-0.814-0.678-1.82-1.124-2.914-1.781 0.603-0.304 1.024-0.533 1.459-0.732 3.061-1.399 6.136-2.769 9.18-4.203 0.713-0.335 1.244-0.373 1.939 0.08C64.78 26.4 66.516 27.384 68.414 28.524z" fill="#7a26c1" data-fill-palette-color="accent"></path></svg></g></svg></g></svg></g><defs></defs></svg><rect width="395.52" height="42.050095663503136" fill="none" stroke="none" visibility="hidden"></rect></g></svg></g></svg>